HIERARCHY
ROOT Hips
{
	OFFSET -0.001795 -0.223333 0.028219
	CHANNELS 6 Xposition Yposition Zposition Zrotation Yrotation Xrotation 
	JOINT LeftUpLeg
	{
		OFFSET 0.069520 -0.091406 -0.006815
		CHANNELS 3 Zrotation Yrotation Xrotation
		JOINT LeftLeg
		{
			OFFSET 0.034277 -0.375199 -0.004496
			CHANNELS 3 Zrotation Yrotation Xrotation
			JOINT LeftFoot
			{
				OFFSET -0.013596 -0.397961 -0.043693
				CHANNELS 3 Zrotation Yrotation Xrotation
				JOINT LeftToe
				{
					OFFSET 0.026358 -0.055791 0.119288
					CHANNELS 3 Zrotation Yrotation Xrotation
					End Site
					{
						OFFSET 0.000000 0.000000 0.000000
					}
				}
			}
		}
	}
	JOINT RightUpLeg
	{
		OFFSET -0.067670 -0.090522 -0.004320
		CHANNELS 3 Zrotation Yrotation Xrotation
		JOINT RightLeg
		{
			OFFSET -0.038290 -0.382569 -0.008850
			CHANNELS 3 Zrotation Yrotation Xrotation
			JOINT RightFoot
			{
				OFFSET 0.015774 -0.398415 -0.042312
				CHANNELS 3 Zrotation Yrotation Xrotation
				JOINT RightToe
				{
					OFFSET -0.025372 -0.048144 0.123348
					CHANNELS 3 Zrotation Yrotation Xrotation
					End Site
					{
						OFFSET 0.000000 0.000000 0.000000
					}
				}
			}
		}
	}
	JOINT Spine
	{
		OFFSET -0.002533 0.108963 -0.026696
		CHANNELS 3 Zrotation Yrotation Xrotation
		JOINT Spine1
		{
			OFFSET 0.005487 0.135180 0.001092
			CHANNELS 3 Zrotation Yrotation Xrotation
			JOINT Spine2
			{
				OFFSET 0.001457 0.052922 0.025425
				CHANNELS 3 Zrotation Yrotation Xrotation
				JOINT Neck
				{
					OFFSET -0.002778 0.213870 -0.042857
					CHANNELS 3 Zrotation Yrotation Xrotation
					JOINT Head
					{
						OFFSET 0.005152 0.064970 0.051349
						CHANNELS 3 Zrotation Yrotation Xrotation
						End Site
						{
							OFFSET 0.000000 0.000000 0.000000
						}
					}
				}
				JOINT LeftShoulder
				{
					OFFSET 0.078845 0.121749 -0.034090
					CHANNELS 3 Zrotation Yrotation Xrotation
					JOINT LeftArm
					{
						OFFSET 0.090977 0.030469 -0.008868
						CHANNELS 3 Zrotation Yrotation Xrotation
						JOINT LeftForeArm
						{
							OFFSET 0.259612 -0.012772 -0.027456
							CHANNELS 3 Zrotation Yrotation Xrotation
							JOINT LeftHand
							{
								OFFSET 0.249234 0.008986 -0.001171
								CHANNELS 3 Zrotation Yrotation Xrotation
								End Site
								{
									OFFSET 0.000000 0.000000 0.000000
								}
							}
						}
					}
				}
				JOINT RightShoulder
				{
					OFFSET -0.081759 0.118833 -0.038615
					CHANNELS 3 Zrotation Yrotation Xrotation
					JOINT RightArm
					{
						OFFSET -0.096012 0.032551 -0.009143
						CHANNELS 3 Zrotation Yrotation Xrotation
						JOINT RightForeArm
						{
							OFFSET -0.253742 -0.013329 -0.021401
							CHANNELS 3 Zrotation Yrotation Xrotation
							JOINT RightHand
							{
								OFFSET -0.255298 0.007772 -0.005559
								CHANNELS 3 Zrotation Yrotation Xrotation
								End Site
								{
									OFFSET 0.000000 0.000000 0.000000
								}
							}
						}
					}
				}
			}
		}
	}
}
MOTION
Frames: 12
Frame Time: 0.050000
0.005104 0.935320 0.030854 -0.942679 -8.378607 6.906855 6.124449 -0.393214 -9.980611 -2.155998 0.274515 11.486192 3.430507 7.543333 1.135316 0.000000 0.000000 0.000000 -3.753476 1.196306 -13.543532 -4.025668 1.349493 11.194466 0.904652 -0.659543 4.536755 0.000000 0.000000 0.000000 4.809123 0.474200 -6.682769 1.254137 -0.485861 -5.336211 -8.122625 6.007027 3.407376 11.879866 -4.646238 -21.171293 0.000000 0.000000 0.000000 0.754778 -10.879096 3.629342 -38.397637 -48.218459 10.722861 114.883861 -56.044056 -76.008150 0.000000 0.000000 0.000000 1.021797 1.415118 0.465170 40.564302 34.339247 7.658220 -140.722484 55.042569 -101.298947 0.000000 0.000000 0.000000 
0.005451 0.935145 0.028801 -0.790752 -7.861133 6.875641 5.980762 -0.423016 -10.244781 -2.164858 0.260869 11.311540 3.141035 6.912009 0.961140 0.000000 0.000000 0.000000 -3.784901 1.151501 -13.124228 -4.133433 1.308670 10.615570 1.057594 -0.148947 4.330706 0.000000 0.000000 0.000000 4.615154 0.454734 -6.602338 1.254918 -0.483617 -5.140879 -8.109695 5.615204 3.522298 11.756281 -4.638110 -20.934972 0.000000 0.000000 0.000000 0.452990 -10.604923 3.535679 -37.356032 -47.638625 10.145885 114.490814 -56.512188 -76.092899 0.000000 0.000000 0.000000 0.966689 1.406237 0.462855 40.919294 34.108147 7.653638 -140.318938 55.539404 -101.412965 0.000000 0.000000 0.000000 
0.005595 0.935978 0.026625 -0.619969 -7.716584 6.833000 5.766380 -0.438498 -10.057113 -2.185353 0.255908 10.623156 3.100487 6.884264 1.227596 0.000000 0.000000 0.000000 -3.801284 1.120883 -12.793574 -4.384064 1.261525 9.662653 1.240102 -0.004180 4.803824 0.000000 0.000000 0.000000 4.430694 0.444990 -6.570998 1.216753 -0.469035 -4.998585 -7.873618 5.116557 3.371888 11.624218 -4.664713 -20.618834 0.000000 0.000000 0.000000 0.812549 -10.673322 3.575505 -35.443470 -46.947804 9.289999 112.398512 -56.092250 -73.267918 0.000000 0.000000 0.000000 0.668578 1.659150 0.558779 40.602212 34.442530 7.677275 -138.054796 56.702189 -100.090219 0.000000 0.000000 0.000000 
0.005870 0.936837 0.024261 -0.416237 -7.405765 6.907509 5.574731 -0.465666 -10.180035 -2.179877 0.243215 10.000330 2.917683 6.585005 1.580901 0.000000 0.000000 0.000000 -3.937938 1.089136 -12.532993 -4.525262 1.192203 8.706221 1.357094 0.080035 5.149720 0.000000 0.000000 0.000000 4.316372 0.434496 -6.548960 1.188800 -0.452563 -5.015010 -7.969135 4.593593 3.394951 11.675517 -4.749113 -20.504318 0.000000 0.000000 0.000000 1.405157 -10.888277 3.660444 -33.265971 -46.794345 8.503975 109.900317 -55.715977 -70.187997 0.000000 0.000000 0.000000 0.568588 2.144627 0.731466 39.762700 34.904597 7.599562 -135.724606 56.971117 -97.562182 0.000000 0.000000 0.000000 
0.006282 0.937595 0.021650 -0.276701 -7.413413 6.969541 5.269873 -0.491334 -10.182649 -2.032862 0.210826 9.739579 2.914564 6.678357 2.052313 0.000000 0.000000 0.000000 -3.916945 1.087365 -12.490846 -4.592694 1.160891 8.262438 1.314136 -0.217143 5.486893 0.000000 0.000000 0.000000 4.397414 0.420828 -6.383980 1.241364 -0.470104 -5.203039 -7.987155 4.436426 3.398578 11.563623 -4.657233 -20.731107 0.000000 0.000000 0.000000 1.992851 -11.306550 3.802073 -31.539627 -46.835383 7.922390 108.537452 -54.858588 -67.813547 0.000000 0.000000 0.000000 0.221102 2.466054 0.857503 39.424988 35.646763 7.763335 -133.927728 57.276922 -95.718712 0.000000 0.000000 0.000000 
0.006728 0.937892 0.019145 -0.223378 -7.449698 6.958421 5.066856 -0.509306 -10.242585 -1.813869 0.165042 9.687903 2.759469 6.353128 2.011003 0.000000 0.000000 0.000000 -3.952774 1.088282 -12.521111 -4.589609 1.132677 7.973458 1.370421 -0.235102 5.730428 0.000000 0.000000 0.000000 4.452745 0.402426 -6.165831 1.360251 -0.515062 -5.392752 -7.971688 4.170697 3.227501 11.550887 -4.644732 -20.855120 0.000000 0.000000 0.000000 2.186717 -11.578049 3.892464 -30.608331 -46.677681 7.598761 107.824488 -54.163991 -66.219473 0.000000 0.000000 0.000000 0.058472 3.087113 1.078279 38.941331 35.869851 7.706214 -133.087062 57.535175 -95.192220 0.000000 0.000000 0.000000 
0.006984 0.937638 0.017014 -0.164064 -7.108301 6.952590 5.002292 -0.526639 -10.427964 -1.767159 0.148502 9.778345 2.578113 6.034377 2.203346 0.000000 0.000000 0.000000 -3.975715 1.092906 -12.653405 -4.628118 1.143716 8.026549 1.410649 -0.230098 5.929491 0.000000 0.000000 0.000000 4.428180 0.389455 -6.058489 1.622115 -0.619259 -5.353748 -8.043606 3.893758 2.945612 11.374564 -4.539858 -20.839809 0.000000 0.000000 0.000000 1.982145 -11.602494 3.901527 -30.387553 -46.665485 7.548844 108.203858 -54.431413 -66.882585 0.000000 0.000000 0.000000 0.004798 3.208465 1.122113 38.563275 35.556303 7.519570 -133.741153 57.924317 -96.581267 0.000000 0.000000 0.000000 
0.006879 0.937112 0.015240 -0.227467 -6.862479 6.828242 4.909627 -0.539767 -10.513382 -1.630157 0.114274 10.029423 2.473810 5.753759 1.890103 0.000000 0.000000 0.000000 -3.825047 1.091846 -12.595525 -4.747950 1.190543 8.302973 1.447748 0.084070 5.564075 0.000000 0.000000 0.000000 4.575635 0.372142 -5.826159 1.722625 -0.656050 -5.424185 -7.987851 3.736309 2.781463 11.234820 -4.548532 -20.370459 0.000000 0.000000 0.000000 1.624805 -11.747079 3.949425 -30.657159 -46.508232 7.619874 108.692951 -54.900611 -67.886363 0.000000 0.000000 0.000000 0.139071 3.363836 1.170788 38.688439 34.815825 7.309802 -135.746199 58.697985 -100.173747 0.000000 0.000000 0.000000 
0.006378 0.936368 0.013610 -0.427631 -6.600604 6.675179 5.041608 -0.531296 -10.514860 -1.514362 0.083672 10.337743 2.500458 5.761797 1.675072 0.000000 0.000000 0.000000 -3.681465 1.090434 -12.541315 -4.797678 1.216130 8.477917 1.453443 0.088871 5.616385 0.000000 0.000000 0.000000 4.730217 0.368636 -5.740407 1.815968 -0.701142 -5.110909 -8.023959 3.730778 2.452655 11.233276 -4.607854 -19.897112 0.000000 0.000000 0.000000 1.299957 -11.687603 3.926105 -31.020360 -46.657203 7.794438 109.286503 -55.509919 -69.280973 0.000000 0.000000 0.000000 0.573530 3.186522 1.094131 38.945798 34.023637 7.139637 -138.126648 59.024063 -103.633851 0.000000 0.000000 0.000000 
0.005573 0.935792 0.012042 -0.504668 -6.027504 6.564897 5.161748 -0.531315 -10.564893 -1.533325 0.074810 10.644711 2.481495 5.708330 1.576058 0.000000 0.000000 0.000000 -3.446750 1.079857 -12.352536 -4.754327 1.219864 8.607495 1.183694 -0.239302 5.202326 0.000000 0.000000 0.000000 4.849783 0.356624 -5.598388 1.944128 -0.743506 -5.260877 -8.132583 3.488685 2.322058 11.307717 -4.647192 -19.814533 0.000000 0.000000 0.000000 0.943553 -11.662630 3.914366 -31.373510 -46.645497 7.919024 109.815429 -55.825735 -70.232702 0.000000 0.000000 0.000000 1.237429 2.852810 0.950955 39.510861 33.671534 7.171378 -139.808729 59.455530 -106.354564 0.000000 0.000000 0.000000 
0.004594 0.935457 0.010669 -0.606815 -5.894632 6.609385 5.327644 -0.526721 -10.756942 -1.467160 0.057517 10.740343 2.443766 5.653809 1.660775 0.000000 0.000000 0.000000 -3.234341 1.090730 -12.358492 -4.672691 1.219547 8.757428 1.113878 -0.186730 4.844219 0.000000 0.000000 0.000000 4.966734 0.370606 -5.731483 1.972854 -0.759394 -5.092188 -8.245188 3.627334 1.938248 11.300999 -4.689451 -19.365697 0.000000 0.000000 0.000000 0.797388 -11.487375 3.847534 -31.659868 -46.885330 8.088837 109.741169 -55.858837 -70.372246 0.000000 0.000000 0.000000 1.784483 2.421218 0.777373 40.737636 33.239089 7.365923 -140.428566 59.586410 -107.191817 0.000000 0.000000 0.000000 
0.003693 0.935431 0.009577 -0.711493 -5.806443 6.639021 5.408973 -0.519580 -10.695302 -1.490081 0.061550 10.521335 2.453340 5.630934 1.487474 0.000000 0.000000 0.000000 -2.913313 1.101428 -12.285843 -4.669797 1.204567 8.606285 0.976028 -0.364095 4.607225 0.000000 0.000000 0.000000 5.088817 0.377487 -5.781529 2.116706 -0.821308 -4.995266 -8.474335 3.755837 1.572613 11.470052 -4.762636 -19.272521 0.000000 0.000000 0.000000 0.771731 -11.196234 3.742853 -31.775592 -47.129002 8.197226 110.164196 -55.567752 -70.626702 0.000000 0.000000 0.000000 2.316938 1.918210 0.575306 41.917822 33.502451 7.801583 -140.071173 59.964327 -106.990697 0.000000 0.000000 0.000000 
